<svg version="1.0" xmlns="http://www.w3.org/2000/svg"
    width="250px" height="250px" viewBox="0 0 512.000000 512.000000"
    preserveAspectRatio="xMidYMid meet">
<metadata>
Created by potrace 1.16, written by Peter Selinger 2001-2019
</metadata>
<g transform="rotate(45 256 256) translate(0.000000,512.000000) scale(0.100000,-0.100000)"
fill="#a9a9a955" stroke="none">
<path d="M1074 4750 c-44 -10 -89 -44 -116 -88 l-23 -37 -3 -2005 c-2 -1481 0
-2019 8 -2058 14 -65 65 -121 126 -140 53 -15 2884 -18 2884 -2 0 6 -501 11
-1437 12 -1618 3 -1475 -4 -1531 80 l-27 42 0 2031 0 2031 27 41 c16 24 44 49
70 62 l44 21 1475 0 c832 0 1491 -4 1513 -9 45 -11 93 -53 112 -98 10 -23 14
-82 15 -200 0 -92 4 -190 9 -218 5 -33 8 23 9 168 1 241 -3 264 -62 325 -17
18 -47 37 -67 42 -41 12 -2978 12 -3026 0z"/>
<path d="M1130 4527 c-13 -45 -34 -101 -46 -124 l-21 -43 40 0 40 0 -47 -43
c-44 -42 -54 -65 -40 -102 11 -28 53 -38 81 -20 24 16 24 16 14 -4 -6 -11 -19
-25 -29 -30 -13 -8 -3 -10 42 -11 l59 0 -23 25 -24 25 31 -6 c45 -9 73 10 73
49 0 18 -4 37 -8 43 -14 23 -117 94 -135 94 -12 0 -17 6 -15 18 2 12 15 18 42
20 38 3 39 3 33 -27 -6 -30 -6 -31 33 -31 43 0 47 5 27 29 -7 9 -26 62 -41
119 -36 131 -51 135 -86 19z m53 -44 c6 -30 4 -33 -19 -33 -19 0 -24 4 -20 18
3 9 8 30 12 46 8 32 17 21 27 -31z"/>
<path d="M1779 4523 c-11 -12 -14 -60 -14 -207 0 -105 4 -208 8 -228 l9 -37
-54 -27 c-97 -48 -185 -123 -342 -290 -111 -117 -165 -182 -187 -225 -34 -68
-34 -90 0 -35 22 35 116 126 131 126 4 0 1 -21 -7 -47 -9 -28 -17 -93 -18
-153 -2 -95 -7 -118 -48 -240 -60 -179 -98 -353 -103 -470 -2 -52 -7 -144 -12
-204 -17 -212 13 -481 74 -673 31 -99 51 -112 23 -15 -62 213 -83 391 -76 640
6 213 24 328 72 462 41 117 212 458 238 474 23 15 147 57 147 50 0 -2 -24 -53
-53 -112 -30 -59 -67 -141 -82 -182 -15 -41 -36 -87 -47 -102 -22 -32 -23 -79
-2 -120 16 -30 16 -33 -5 -49 -27 -22 -27 -29 4 -29 19 0 25 -5 25 -21 0 -27
16 -56 55 -100 23 -26 34 -50 39 -85 23 -176 -126 -691 -286 -987 -18 -35 -19
-44 -9 -98 17 -85 44 -141 91 -193 24 -26 46 -63 55 -93 19 -64 72 -113 124
-113 13 0 26 -12 37 -36 32 -68 131 -108 269 -108 59 0 78 4 117 27 26 15 60
44 78 64 32 40 70 144 70 195 0 25 17 48 88 120 48 49 125 122 172 161 47 39
106 91 132 116 26 25 50 42 53 39 13 -12 55 -229 65 -336 17 -172 -1 -349 -60
-571 -16 -62 -30 -115 -30 -117 0 -7 -274 -3 -327 5 -29 4 -50 4 -48 0 10 -15
242 -32 357 -25 228 13 382 56 598 167 171 88 277 164 463 331 171 154 177
158 177 126 1 -21 5 -18 43 23 114 124 233 451 283 774 23 154 24 516 0 678
-61 420 -231 771 -511 1052 -258 259 -594 417 -930 438 l-80 5 65 -10 c146
-22 300 -58 380 -87 504 -184 916 -692 1029 -1266 55 -280 54 -709 -3 -935
l-14 -55 -1 65 c-1 36 -10 97 -21 135 -37 128 -98 379 -119 493 -24 123 -61
236 -126 382 -23 52 -52 136 -64 185 -30 123 -114 294 -183 370 -37 41 -60 78
-72 115 -10 30 -30 77 -44 105 -15 27 -29 55 -31 60 -7 21 132 -123 176 -180
44 -59 92 -145 119 -215 l14 -35 -6 35 c-8 53 -65 168 -117 236 -70 93 -262
272 -361 338 -161 107 -329 171 -512 198 l-86 12 -30 46 c-74 110 -185 250
-202 256 -27 9 -49 -23 -42 -61 7 -36 -9 -133 -30 -186 -14 -34 -18 -37 -70
-42 -54 -6 -56 -5 -91 34 -20 22 -78 71 -130 110 -64 48 -105 87 -126 120 -32
52 -46 59 -68 32z m100 -208 c22 -70 38 -216 23 -200 -5 6 -21 64 -36 130 -14
66 -29 131 -32 145 -11 50 25 -11 45 -75z m523 -55 c43 -125 55 -221 40 -323
-7 -46 -12 -96 -12 -113 0 -23 -2 -26 -10 -14 -7 9 -8 66 -4 155 7 150 -1 217
-39 333 l-21 67 -7 -55 c-4 -30 -15 -97 -24 -149 -9 -52 -15 -112 -13 -134 3
-33 2 -36 -9 -20 -22 29 -35 95 -29 143 5 37 42 180 62 240 7 21 30 -24 66
-130z m-391 3 c28 -31 73 -102 68 -107 -9 -7 -109 -23 -114 -18 -3 3 -5 17 -5
32 0 30 -29 120 -55 170 l-18 34 49 -41 c27 -23 61 -54 75 -70z m477 -68 c28
-84 44 -208 44 -357 0 -71 4 -128 9 -128 15 0 33 82 38 178 l6 93 60 -39 c71
-46 116 -94 151 -165 l27 -51 -35 35 c-44 46 -187 154 -194 147 -3 -3 -2 -17
1 -31 5 -18 27 -38 73 -66 37 -21 87 -56 111 -77 49 -42 101 -118 101 -146 0
-10 5 -18 10 -18 12 0 12 10 1 82 -20 121 -108 236 -234 308 -69 38 -82 54
-30 36 196 -70 445 -302 529 -492 33 -75 30 -88 -7 -28 -40 63 -125 161 -153
176 -19 10 -19 8 5 -23 66 -89 79 -107 106 -154 42 -72 109 -240 123 -310 24
-115 -12 -258 -80 -327 -36 -37 -37 -38 -14 -38 92 0 185 96 221 225 33 119
25 426 -12 509 -14 30 -14 29 -10 -29 l5 -60 -23 81 c-13 44 -29 89 -36 100
-12 19 -12 18 -7 -1 58 -224 80 -364 74 -493 -3 -84 -8 -104 -32 -150 -16 -28
-30 -51 -32 -50 -1 2 7 37 18 78 16 63 19 97 15 205 -8 213 -62 376 -170 520
-82 109 -266 255 -383 305 l-49 20 50 -6 c119 -14 270 -88 357 -175 26 -26 50
-44 53 -39 8 13 -91 97 -165 140 -86 50 -155 77 -255 100 -44 10 -70 19 -57
19 13 1 55 -6 94 -15 232 -53 433 -201 530 -390 55 -106 67 -152 78 -294 l9
-105 -4 133 c-1 73 -1 132 0 130 2 -2 11 -54 19 -116 28 -196 20 -289 -41
-476 -44 -138 -84 -220 -131 -268 -20 -21 -32 -38 -26 -38 13 0 72 44 88 66
12 16 14 15 19 -8 4 -13 2 -83 -3 -154 -5 -71 -9 -138 -9 -149 0 -35 15 4 28
72 7 34 34 125 61 202 61 172 81 279 83 431 1 65 3 117 5 115 2 -2 7 -25 12
-52 7 -37 9 -23 6 67 -3 120 7 114 24 -15 l7 -60 3 50 2 50 9 -40 c4 -22 8
-78 8 -125 1 -47 8 -172 16 -278 17 -221 13 -267 -41 -454 -19 -64 -47 -184
-64 -267 -34 -170 -54 -230 -134 -390 -64 -126 -93 -174 -145 -240 -19 -24
-27 -40 -18 -35 30 17 113 140 171 252 69 135 126 276 209 512 36 102 82 228
102 280 34 84 39 109 45 215 l7 120 1 -120 c2 -143 -7 -211 -54 -409 -19 -82
-33 -151 -31 -153 6 -6 64 207 83 302 8 44 19 139 23 210 l8 130 1 -116 c2
-125 -18 -261 -63 -428 -14 -52 -24 -95 -22 -97 2 -2 14 30 27 71 46 146 31
63 -25 -137 -116 -420 -208 -651 -297 -753 -82 -93 -290 -255 -476 -369 -34
-22 -60 -41 -57 -44 10 -10 195 89 314 168 68 45 155 112 194 149 l71 66 -79
-105 c-44 -57 -118 -143 -164 -189 -68 -68 -77 -80 -45 -61 104 63 219 170
286 268 64 93 168 337 147 344 -6 2 -2 23 10 52 26 59 51 160 86 336 14 74 29
137 32 140 12 10 -8 -225 -28 -328 -31 -162 -52 -224 -128 -375 -38 -75 -67
-137 -65 -137 14 0 120 182 148 257 63 162 106 363 106 498 0 39 7 97 15 130
18 75 18 103 0 50 l-14 -40 6 39 c3 21 12 59 19 85 l14 46 -5 -45 c-3 -32 -2
-39 5 -24 12 31 39 204 49 319 l8 100 1 -130 c2 -128 -21 -516 -34 -585 -13
-70 -74 -278 -118 -400 -24 -69 -47 -134 -51 -145 l-7 -20 17 20 c42 49 119
253 154 405 10 41 10 39 6 -30 -11 -186 -97 -375 -240 -529 -27 -30 -43 -51
-35 -46 25 14 112 86 162 134 26 24 51 41 55 37 8 -8 -31 -47 -197 -193 -260
-229 -471 -356 -712 -429 -76 -23 -259 -57 -266 -49 -5 5 25 60 86 160 41 65
91 124 183 216 205 205 251 306 279 614 6 61 10 117 10 125 -1 32 -63 -142
-101 -285 -47 -173 -74 -236 -129 -296 l-39 -44 15 50 c26 84 14 169 -36 271
-74 148 -64 240 36 320 122 98 184 186 236 334 26 75 48 184 47 228 -1 27 -3
30 -6 12 -17 -102 -101 -317 -155 -400 -27 -42 -118 -123 -118 -106 0 3 18 33
40 67 22 35 45 81 52 103 6 23 20 50 30 62 40 45 102 242 113 359 l5 60 -24
-85 c-24 -86 -55 -171 -39 -105 4 17 9 158 11 315 1 157 3 315 5 352 1 60 -2
74 -45 160 -57 113 -133 207 -230 284 -40 32 -95 75 -121 97 l-49 40 26 -51
c14 -28 57 -85 94 -127 38 -42 83 -101 102 -131 73 -120 148 -391 155 -554 2
-58 1 -91 -1 -75 -3 17 -17 75 -30 130 -48 189 -117 338 -200 430 l-45 50 31
-47 c93 -142 138 -285 161 -513 33 -322 -67 -608 -246 -704 -36 -20 -37 -21
-10 -16 45 10 119 61 171 118 72 80 108 165 144 335 l19 87 0 -85 c1 -158 -46
-284 -142 -380 -87 -86 -229 -139 -292 -109 -44 21 -75 74 -75 127 0 35 -3 43
-12 34 -6 -6 -11 -39 -11 -72 0 -58 -1 -59 -19 -43 -10 9 -19 14 -21 12 -1 -2
-14 -29 -30 -59 -15 -30 -71 -104 -123 -165 -110 -126 -134 -160 -134 -194 0
-21 3 -20 26 15 15 21 68 89 119 149 50 61 106 130 123 154 25 34 33 40 38 27
13 -34 -10 -70 -120 -186 -82 -85 -118 -131 -129 -162 -8 -24 -23 -69 -33
-102 -10 -32 -23 -59 -28 -60 -6 0 -13 14 -18 31 -21 80 -71 58 -182 -79 -79
-98 -120 -132 -174 -143 -29 -6 -34 -3 -50 24 -9 17 -25 31 -34 31 -22 0 -58
35 -58 55 0 11 11 15 43 15 51 0 84 21 103 66 43 103 -35 250 -114 215 -24
-11 -24 -11 -18 20 3 17 6 37 6 45 0 7 20 42 45 78 25 36 41 66 36 66 -21 0
-101 -103 -107 -138 -12 -74 -26 -104 -58 -123 -22 -13 -26 -19 -13 -19 24 0
77 28 77 41 0 6 5 7 10 4 21 -13 8 -37 -45 -89 -30 -29 -55 -61 -55 -71 0 -17
2 -17 23 3 32 30 40 27 22 -8 -23 -45 -19 -98 11 -137 18 -23 23 -38 16 -45
-14 -14 -58 47 -72 102 -6 25 -18 65 -27 90 -8 25 -17 51 -19 59 -8 25 -44
-19 -44 -53 0 -41 52 -149 81 -170 13 -10 48 -31 78 -49 79 -47 77 -57 -11
-57 -101 0 -118 13 -118 89 0 60 -34 144 -81 201 -20 25 -20 25 1 -18 11 -23
25 -54 30 -67 17 -46 1 -25 -31 38 -17 34 -40 74 -50 89 -26 35 -24 75 5 112
53 71 78 135 176 461 80 264 91 331 100 570 l7 210 51 105 c47 99 85 204 146
412 21 70 33 92 58 112 18 14 33 24 34 23 1 -1 8 -48 14 -104 14 -122 2 -175
-58 -260 -120 -170 -112 -153 -128 -258 -14 -94 -14 -145 1 -69 10 55 54 136
129 242 116 160 121 175 121 332 0 161 -3 155 128 258 89 71 93 73 137 67 24
-3 97 -23 160 -45 64 -22 119 -40 123 -40 3 0 -6 23 -21 52 -26 51 -27 58 -28
228 -1 154 -5 187 -28 278 -14 57 -26 106 -26 110 0 18 50 -80 68 -133z m169
-91 c-3 -3 -12 -4 -19 -1 -8 3 -5 6 6 6 11 1 17 -2 13 -5z m-380 -182 c9 -26
31 -62 48 -81 28 -33 28 -34 4 -16 -58 43 -99 136 -98 219 l1 51 13 -64 c8
-35 22 -84 32 -109z m-120 151 c-4 -4 -39 -15 -78 -24 -283 -72 -477 -224
-646 -507 -68 -113 -76 -102 -18 25 42 90 100 169 188 256 149 144 319 226
522 250 17 2 32 5 34 6 2 0 1 -2 -2 -6z m573 -50 c113 -46 242 -133 312 -211
36 -40 121 -188 133 -232 3 -14 -12 9 -35 50 -96 172 -195 262 -417 375 -111
57 -108 64 7 18z m-615 -21 c-33 -14 -142 -68 -241 -119 -100 -51 -199 -100
-220 -109 l-39 -16 20 22 c61 68 221 166 336 206 136 48 243 60 144 16z m-25
-63 c-19 -12 -71 -54 -116 -94 -68 -62 -95 -79 -175 -110 -92 -37 -144 -63
-185 -94 -11 -9 0 4 25 28 47 45 261 190 339 230 23 12 47 19 52 16 6 -3 10
-2 10 3 0 9 57 40 75 41 6 1 -6 -9 -25 -20z m-450 -52 c0 -1 -39 -38 -86 -82
-48 -43 -82 -70 -76 -59 20 37 162 160 162 141z m534 -7 c-15 -15 -182 -86
-219 -93 -36 -8 -37 -8 105 52 130 55 128 55 114 41z m1185 -131 c17 -31 31
-65 30 -75 0 -11 -7 -2 -14 19 -8 21 -40 75 -71 120 -49 72 -51 77 -16 37 23
-25 55 -70 71 -101z m-1193 102 c-11 -17 -172 -120 -221 -141 -28 -12 -104
-39 -170 -61 -66 -22 -140 -52 -165 -65 l-45 -25 45 40 c55 50 189 117 345
171 65 23 140 52 165 65 55 28 52 27 46 16z m-68 -86 c-66 -62 -150 -111 -275
-162 -48 -19 -118 -50 -155 -68 -37 -19 -68 -32 -68 -29 0 12 119 78 216 119
152 65 238 111 287 156 64 58 60 46 -5 -16z m1083 -128 c22 -43 38 -81 35 -84
-3 -4 -6 -2 -6 4 0 6 -29 59 -65 119 -40 67 -54 96 -35 74 16 -19 48 -70 71
-113z m216 -44 c-3 -10 -5 -4 -5 12 0 17 2 24 5 18 2 -7 2 -21 0 -30z m-1714
-271 c-30 -78 -38 -111 -39 -167 0 -62 -6 -83 -49 -175 -34 -73 -50 -123 -54
-165 l-6 -60 -18 65 c-10 36 -26 84 -34 108 -15 41 -15 45 6 82 12 22 29 63
37 92 16 56 93 205 153 298 50 77 52 44 4 -78z m1664 86 c-3 -7 -5 -2 -5 12 0
14 2 19 5 13 2 -7 2 -19 0 -25z m10 -75 c-3 -10 -5 -4 -5 12 0 17 2 24 5 18 2
-7 2 -21 0 -30z m190 -35 c-3 -8 -6 -5 -6 6 -1 11 2 17 5 13 3 -3 4 -12 1 -19z
m-2172 -30 c-7 -18 -27 -61 -44 -95 -43 -87 -59 -124 -102 -238 -48 -126 -49
-110 -4 40 37 121 76 209 127 283 35 50 42 53 23 10z m2235 -67 c11 -35 20
-84 19 -110 l-1 -46 -9 45 c-13 60 -37 162 -45 186 -5 16 -4 16 5 4 6 -8 20
-44 31 -79z m-664 4 c37 -64 64 -157 63 -218 l-1 -52 -23 90 c-12 50 -34 119
-49 154 -14 36 -26 66 -26 68 0 12 13 -3 36 -42z m531 -47 c-3 -7 -5 -2 -5 12
0 14 2 19 5 13 2 -7 2 -19 0 -25z m-17 -157 c-10 -61 -37 -158 -39 -141 -1 3
8 51 19 108 11 56 21 117 21 135 l2 32 4 -30 c3 -16 0 -63 -7 -104z m247 -158
c-3 -10 -5 -4 -5 12 0 17 2 24 5 18 2 -7 2 -21 0 -30z m-2520 -35 c-3 -8 -6
-5 -6 6 -1 11 2 17 5 13 3 -3 4 -12 1 -19z m2483 -23 c0 -15 3 -16 9 -7 10 17
22 -88 15 -132 -26 -153 -33 -161 -57 -66 -12 47 -13 68 -1 145 7 50 14 95 14
100 1 18 20 -20 20 -40z m-2493 -17 c-3 -8 -6 -5 -6 6 -1 11 2 17 5 13 3 -3 4
-12 1 -19z m-10 -50 c-3 -7 -5 -2 -5 12 0 14 2 19 5 13 2 -7 2 -19 0 -25z
m2610 -350 c-3 -8 -6 -5 -6 6 -1 11 2 17 5 13 3 -3 4 -12 1 -19z m-10 -50 c-3
-7 -5 -2 -5 12 0 14 2 19 5 13 2 -7 2 -19 0 -25z m129 -358 c8 -184 -4 -278
-47 -369 -16 -35 -31 -62 -34 -60 -2 3 8 41 22 84 26 76 27 92 32 330 5 276
16 282 27 15z m83 31 c2 -80 -5 -59 -11 34 -3 45 -2 67 2 50 4 -16 8 -54 9
-84z m-1459 -181 c-18 -34 -116 -134 -181 -185 -62 -49 -63 -49 -39 -15 49 71
203 220 227 220 2 0 -1 -9 -7 -20z m-474 -371 c3 -6 2 -14 -3 -18 -6 -3 -34
-37 -63 -76 -54 -72 -69 -90 -55 -66 5 10 4 12 -4 7 -6 -4 -9 -11 -6 -16 7
-12 -61 -88 -94 -104 -37 -19 -99 -27 -146 -18 l-40 8 40 8 c107 20 142 48
298 239 38 47 59 57 73 36z m-16 -116 c-13 -37 -40 -105 -62 -150 -46 -98 -67
-113 -160 -112 l-63 0 50 18 c93 31 133 75 203 223 25 54 48 96 50 93 2 -2 -6
-34 -18 -72z"/>
<path d="M3145 3792 c21 -30 53 -81 72 -115 19 -34 31 -51 27 -37 -12 48 -66
138 -101 171 l-36 34 38 -53z"/>
<path d="M3185 3795 c9 -16 28 -43 42 -60 l25 -30 -18 33 c-10 18 -29 45 -42
60 l-23 27 16 -30z"/>
<path d="M2325 3632 c55 -27 118 -64 138 -82 42 -36 59 -33 36 8 -19 34 -76
67 -164 93 -114 34 -115 33 -10 -19z"/>
<path d="M2096 3565 c23 -79 44 -187 44 -227 0 -46 -1 -47 -72 -105 -40 -33
-83 -73 -94 -91 -47 -69 -39 -146 22 -226 l35 -46 -40 -118 c-55 -163 -55
-163 -25 -107 42 80 58 92 135 105 39 7 81 9 95 6 39 -10 111 4 146 28 46 31
66 64 84 138 21 86 49 104 39 26 -20 -163 -74 -220 -252 -268 -171 -46 -244
-133 -288 -342 -19 -87 -19 -145 -1 -71 22 89 76 219 108 258 37 44 66 44 89
-2 l16 -33 6 46 c7 64 33 87 134 119 144 45 203 118 228 284 11 71 20 100 45
136 52 76 70 124 69 190 -1 56 -2 58 -8 19 -7 -43 -98 -190 -143 -230 -36 -33
-74 -37 -167 -18 -106 21 -148 15 -196 -30 -19 -18 -35 -29 -35 -23 0 5 17 27
39 47 54 51 101 62 196 43 119 -24 177 -2 210 80 18 44 6 49 -18 7 -29 -49
-70 -64 -146 -54 -110 13 -163 10 -215 -16 -65 -31 -106 -88 -106 -149 -1 -37
-3 -43 -11 -28 -6 10 -11 40 -11 65 -1 26 -5 58 -10 71 -16 44 2 92 53 143 26
26 53 48 59 48 7 0 25 9 41 21 24 17 29 27 29 63 0 24 -8 67 -19 97 -19 55
-76 180 -65 144z m213 -549 l45 -13 -85 -6 c-98 -8 -122 -21 -161 -93 -23 -42
-28 -45 -28 -23 0 30 48 110 81 133 28 19 88 20 148 2z m-23 -60 c15 -12 17
-17 7 -27 -10 -10 -16 -10 -25 -1 -7 7 -22 12 -34 12 -24 0 -38 13 -27 24 11
11 59 6 79 -8z m101 -50 c-36 -78 -68 -96 -176 -96 -72 0 -90 -4 -128 -25 -42
-25 -57 -21 -28 8 26 27 85 40 146 33 91 -9 148 23 184 105 10 21 20 37 23 35
2 -3 -7 -30 -21 -60z m-17 49 c0 -12 -33 -55 -41 -55 -17 0 -9 48 9 53 27 7
32 7 32 2z"/>
<path d="M1803 3288 c-48 -80 -51 -102 -4 -28 37 58 47 80 38 80 -1 0 -17 -24
-34 -52z"/>
<path d="M2350 3268 c19 -5 41 -14 48 -20 8 -7 12 -7 12 0 0 16 -34 32 -67 31
-27 -1 -26 -1 7 -11z"/>
<path d="M2063 3138 c-37 -42 -37 -54 0 -19 21 19 37 36 37 38 0 10 -19 0 -37
-19z"/>
<path d="M2650 2983 c-1 -216 -180 -491 -415 -638 -71 -45 -121 -90 -141 -127
-20 -38 -17 -48 4 -16 25 38 60 63 115 82 102 34 132 61 259 233 82 110 138
212 162 292 17 57 33 211 22 211 -3 0 -6 -17 -6 -37z"/>
<path d="M3532 2894 c-9 -49 -34 -113 -87 -219 -81 -162 -94 -213 -95 -366 0
-168 -53 -374 -160 -623 -74 -172 -67 -174 29 -6 104 184 158 332 206 560 14
69 46 204 72 300 35 136 47 198 51 280 6 135 0 161 -16 74z"/>
<path d="M1903 2899 c-53 -91 -93 -187 -148 -354 -29 -88 -81 -240 -115 -338
-34 -98 -60 -181 -57 -183 7 -8 124 249 175 386 91 245 184 520 180 532 -3 7
-18 -13 -35 -43z"/>
<path d="M2811 2859 c-2 -142 -65 -322 -148 -418 -20 -24 -64 -62 -97 -83 -50
-32 -68 -38 -112 -38 -29 0 -56 5 -59 10 -10 17 -22 12 -72 -31 -26 -23 -63
-48 -83 -56 -48 -20 -94 -57 -121 -95 l-22 -33 29 26 c31 29 66 49 83 49 26 0
6 -31 -53 -83 -44 -39 -74 -76 -95 -119 -42 -83 -41 -121 1 -48 44 77 154 182
231 218 34 17 64 28 66 26 8 -8 -68 -121 -149 -223 -47 -58 -99 -124 -115
-146 l-29 -40 38 35 c60 55 159 178 214 265 102 160 97 155 143 155 62 0 106
26 194 114 93 94 135 169 159 288 17 82 20 250 6 283 -6 14 -9 -4 -9 -56z
m-236 -539 c-3 -5 -16 -15 -28 -21 -19 -9 -19 -8 3 10 28 23 34 26 25 11z"/>
<path d="M1705 2488 c-32 -71 -70 -186 -63 -193 1 -2 26 57 54 131 28 74 49
134 47 134 -2 0 -19 -33 -38 -72z"/>
<path d="M3601 2068 c-22 -74 -111 -288 -177 -423 -111 -231 -181 -332 -335
-487 -53 -54 -93 -98 -89 -98 37 0 228 169 301 265 102 135 247 431 288 587
20 78 38 198 29 198 -3 0 -10 -19 -17 -42z"/>
<path d="M3743 2055 c0 -22 2 -30 4 -17 2 12 2 30 0 40 -3 9 -5 -1 -4 -23z"/>
<path d="M2573 1983 c9 -2 23 -2 30 0 6 3 -1 5 -18 5 -16 0 -22 -2 -12 -5z"/>
<path d="M1741 1858 c-1 -16 9 -38 25 -55 l26 -28 -17 29 c-10 16 -21 41 -25
55 l-8 26 -1 -27z"/>
<path d="M2062 1677 c-16 -19 -42 -83 -42 -104 0 -10 14 11 30 46 30 62 34 85
12 58z"/>
<path d="M1775 1623 c12 -31 18 -120 11 -158 -5 -26 -23 -55 -57 -90 -68 -72
-64 -99 9 -55 72 44 104 186 62 278 -18 40 -40 61 -25 25z"/>
<path d="M1980 3881 c-46 -30 -127 -98 -100 -85 14 7 123 87 145 106 18 16 -1
7 -45 -21z"/>
<path d="M1155 1061 c-16 -23 -40 -53 -52 -67 -29 -32 -30 -87 -3 -114 22 -22
69 -27 87 -9 8 8 13 8 17 0 13 -20 54 -12 75 15 37 46 28 82 -36 153 l-58 63
-30 -41z"/>
<path d="M3953 1063 c-35 -5 -40 -12 -21 -31 9 -9 5 -12 -18 -12 -37 0 -54
-16 -54 -51 0 -44 9 -57 67 -96 46 -30 56 -33 66 -21 7 8 29 26 49 42 45 32
57 66 35 100 -26 38 -55 40 -78 3 -10 -18 -19 -28 -19 -23 0 5 9 24 21 42 20
33 19 55 -4 52 -7 0 -27 -3 -44 -5z"/>
<path d="M4221 920 c-1 -63 -4 -174 -5 -246 -3 -154 -17 -193 -81 -228 -22
-11 -42 -22 -44 -23 -2 -2 -2 -6 2 -9 14 -15 94 37 115 75 22 38 22 47 19 293
-1 139 -4 201 -6 138z"/>
<path d="M1200 828 c0 -4 7 -11 16 -16 13 -7 14 -15 3 -55 -13 -54 -23 -58
-42 -19 -26 49 -30 72 -13 72 8 0 18 5 21 10 4 6 -15 10 -50 10 l-56 0 20 -27
c10 -16 34 -73 51 -128 18 -55 36 -104 40 -108 4 -4 23 45 42 110 20 65 39
125 42 134 6 14 0 18 -33 21 -23 2 -41 0 -41 -4z"/>
<path d="M3872 823 c-11 -4 -10 -7 1 -17 8 -6 29 -64 47 -129 19 -68 38 -116
44 -114 6 2 26 53 46 114 19 61 41 118 48 126 10 12 10 16 -4 21 -24 9 -64 7
-64 -3 0 -5 7 -12 16 -15 24 -9 6 -26 -29 -27 -24 -1 -26 -3 -9 -6 25 -5 27
-25 8 -88 l-12 -40 -20 78 c-18 65 -19 80 -8 84 8 3 14 9 14 14 0 10 -56 11
-78 2z"/>
</g>
</svg>